<svg id="Layer_2" data-name="Layer 2" xmlns="http://www.w3.org/2000/svg" viewBox="0 0 462.39 462.48"><defs><style>.cls-1{fill:#6888d8;}.cls-2{fill:#4c70c9;}.cls-3{fill:#3c65b5;}.cls-4{fill:#31549b;}.cls-5{fill:none;stroke:#2e3192;stroke-miterlimit:10;stroke-width:5px;}</style></defs><title>logo3</title><circle class="cls-1" cx="231.22" cy="231.17" r="231.17"/><path class="cls-2" d="M848.44,413.73c-24.22,18.11-52.53,47.52-103.89,52.08-91.62,8.12-124-74.62-220.09-72-32.73.89-69.26,11.6-98.09,28a232,232,0,0,0-12.75,141C474.78,629,597.52,700.17,710.45,732.09c92.86-29.94,160.08-116.91,159.93-220A231.08,231.08,0,0,0,848.44,413.73Z" transform="translate(-408.04 -281.12)"/><path class="cls-3" d="M870.06,524.31c-35.75-23.24-90.71-32.13-135.58-28-100.87,9.32-123,84.75-209.54,81.19-54.71-2.25-91.82-34.16-116.49-51.83,6.9,121.48,108,217.79,231.33,217.78C763.45,743.46,863.92,646.14,870.06,524.31Z" transform="translate(-408.04 -281.12)"/><path class="cls-4" d="M639.35,743.6c100,0,185-63.44,217.24-152.32-43,24.18-114.58,65.27-199.29,50.56-50.84-8.84-59.51-29.66-115.4-35.24-36.53-3.64-76.32.93-108.89,10.15A231.15,231.15,0,0,0,639.35,743.6Z" transform="translate(-408.04 -281.12)"/><path class="cls-5" d="M399.38,328.32" transform="translate(-408.04 -281.12)"/></svg>
